<?xml version="1.0" encoding="utf-8" ?>
<svg baseProfile="full" height="200mm" version="1.1" viewBox="0,0,200,200" width="200mm" xmlns="http://www.w3.org/2000/svg" xmlns:ev="http://www.w3.org/2001/xml-events" xmlns:xlink="http://www.w3.org/1999/xlink"><defs /><rect fill="#1a1a1a" height="200" width="200" x="0" y="0" /><rect fill="#1a1a1a" height="200" width="180" x="10" y="0" /><text alignment-baseline="middle" fill="#e1ed5e" style="dominant-baseline: central; font-size:9.0px; font-family:Arial;" text-anchor="middle" x="100.0" y="100.0">2024</text><line stroke="#e1ed5e" stroke-width="0.3" x1="100.0" x2="100.0" y1="15.0" y2="10.0" /><path d="M 100.0 14.0 a86.0,86.0 0 0,1 42.35913384403234,11.155469271406648" fill="none" id="id25" stroke="none" /><text fill="#e1ed5e" style="font-size:6.75px; font-family:Arial;" text-anchor="middle"><textPath startOffset="22.145653131862478" xlink:href="#id25">January</textPath></text><path d="M 107.06938296918511 80.22567764915836 l 8.400706322311683 -23.498270714182713 a45.95477095207937,45.95477095207937 0 0,0 0.7405520487349319,0.2719409700101692 l -8.80284752270074 23.35059889516382" fill="red" stroke="none" /><line stroke="#e1ed5e" stroke-width="0.3" x1="143.13028292997686" x2="145.6673583964461" y1="26.7553504044142" y2="22.446841604673864" /><path d="M 143.63769802327073 25.89364864446614 a86.0,86.0 0 0,1 29.32050498858742,28.57503671076993" fill="none" id="id26" stroke="none" /><text fill="#e1ed5e" style="font-size:6.75px; font-family:Arial;" text-anchor="middle"><textPath startOffset="20.669276256404974" xlink:href="#id26">February</textPath></text><line stroke="#e1ed5e" stroke-width="0.3" x1="172.87174338648825" x2="177.1583165268699" y1="56.24261187166439" y2="53.66864786411523" /><path d="M 173.72905801456457 55.72781907015455 a86.0,86.0 0 0,1 12.242430191666344,42.057860355516425" fill="none" id="id27" stroke="none" /><text fill="#e1ed5e" style="font-size:6.75px; font-family:Arial;" text-anchor="middle"><textPath startOffset="22.145653131862474" xlink:href="#id27">March</textPath></text><path d="M 119.31412917781788 91.75594674310238 l 57.94238753345363 -24.732159770692828 a84.0,84.0 0 0,0 0.5546966218540672,1.3310699622348887 l -58.358409999844184 23.733857299016663" fill="red" stroke="none" /><line stroke="#e1ed5e" stroke-width="0.3" x1="184.99686870605535" x2="189.99668451229388" y1="99.2704041080226" y2="99.22748670261217" /><path d="M 185.99683186730306 99.26182062694052 a86.0,86.0 0 0,1 -10.086455211305974,41.156179273409016" fill="none" id="id28" stroke="none" /><text fill="#e1ed5e" style="font-size:6.75px; font-family:Arial;" text-anchor="middle"><textPath startOffset="21.40746469413373" xlink:href="#id28">April</textPath></text><line stroke="#e1ed5e" stroke-width="0.3" x1="174.33088141563837" x2="178.70328620479359" y1="141.23008692659167" y2="143.65538615756765" /><path d="M 175.20536237346943 141.71514677278685 a86.0,86.0 0 0,1 -30.301960400862466,31.631185727798858" fill="none" id="id29" stroke="none" /><text fill="#e1ed5e" style="font-size:6.75px; font-family:Arial;" text-anchor="middle"><textPath startOffset="22.145653131862474" xlink:href="#id29">May</textPath></text><path d="M 113.31354834802062 116.24036423190432 l 4.6929063445445305 5.724582684446328 a28.40231158961368,28.40231158961368 0 0,0 -0.3797108142340059,0.3058681536286915 l -4.593944759955272 -5.804299131868422" fill="red" stroke="none" /><path d="M 111.8722381534696 117.32195027204791 l 2.414172134542874 3.5223492927063877 a25.27026599113363,25.27026599113363 0 0,0 -0.3599252551773394,0.24217377463708997 l -2.3533505912685313 -3.563272741400599" fill="red" stroke="none" /><path d="M 111.5731344415666 117.5232005979908 l 4.174708354871634 6.321040536587876 a28.57520582647245,28.57520582647245 0 0,0 -0.41163858684386323,0.2668191587158794 l -4.065584135770761 -6.3917735370076505" fill="red" stroke="none" /><line stroke="#e1ed5e" stroke-width="0.3" x1="143.1302829299769" x2="145.66735839644613" y1="173.24464959558577" y2="177.55315839532614" /><path d="M 143.63769802327073 174.10635135553383 a86.0,86.0 0 0,1 -40.68552437913181,11.842963189579606" fill="none" id="id30" stroke="none" /><text fill="#e1ed5e" style="font-size:6.75px; font-family:Arial;" text-anchor="middle"><textPath startOffset="21.407464694133747" xlink:href="#id30">June</textPath></text><line stroke="#e1ed5e" stroke-width="0.3" x1="101.45913802915013" x2="101.54496967792366" y1="184.9874750549273" y2="189.98673829345242" /><path d="M 101.47630435890484 185.9873277026323 a86.0,86.0 0 0,1 -42.54439059252881,-10.42667462771756" fill="none" id="id31" stroke="none" /><text fill="#e1ed5e" style="font-size:6.75px; font-family:Arial;" text-anchor="middle"><textPath startOffset="22.145653131862474" xlink:href="#id31">July</textPath></text><path d="M 95.70440661134978 120.55596938700252 l -1.8505117673152205 8.855368699403941 a30.04665400042221,30.04665400042221 0 0,0 -0.503979085418556,-0.10983989597967042 l 2.002253269352913 -8.822297345290552" fill="red" stroke="none" /><path d="M 95.00130118170881 120.39639698878247 l -3.0204649041352774 12.32452754504785 a33.68925480261769,33.68925480261769 0 0,0 -0.5605165382483862,-0.1424811121398687 l 3.231586735609042 -12.270861201072718" fill="red" stroke="none" /><path d="M 90.28995756902619 118.62028667847754 l -6.237118768597334 11.960497633721246 a34.48907536415453,34.48907536415453 0 0,0 -0.5226099768597204,-0.27826037655379177 l 6.441517561243616 -11.851666789444883" fill="red" stroke="none" /><line stroke="#e1ed5e" stroke-width="0.3" x1="58.13341422392154" x2="55.67067388415222" y1="173.97424548756322" y2="178.32567169271397" /><path d="M 57.64086615596768 174.84453072859336 a86.0,86.0 0 0,1 -31.369924170532247,-30.572349798747897" fill="none" id="id32" stroke="none" /><text fill="#e1ed5e" style="font-size:6.75px; font-family:Arial;" text-anchor="middle"><textPath startOffset="22.145653131862474" xlink:href="#id32">August</textPath></text><path d="M 89.34428304082925 118.09573695890944 l -6.0780551453830185 10.321866426635696 a32.97846738442052,32.97846738442052 0 0,0 -0.485360190831602,-0.2914448490633947 l 6.254348092772048 -10.216007577036383" fill="red" stroke="none" /><path d="M 89.03521579738668 117.91015095944536 l -5.33945872057806 8.721604544163089 a31.226250791640275,31.226250791640275 0 0,0 -0.45476702930915386,-0.283808260712972 l 5.4883898786769265 -8.62866048660857" fill="red" stroke="none" /><path d="M 88.1277618465304 117.32195027204791 l -7.003375725883863 10.218134482483826 a33.38779818450496,33.38779818450496 0 0,0 -0.46998081134472897,-0.32808310686784287 l 7.1777516284023575 -10.096406559810855" fill="red" stroke="none" /><path d="M 87.54013794807813 116.9041958592261 l -7.2899530666880885 9.890221410986948 a33.28657378087397,33.28657378087397 0 0,0 -0.4570516218626791,-0.3429800577977928 l 7.4586576774615345 -9.763622325925141" fill="red" stroke="none" /><path d="M 86.96720088162412 116.46651593811092 l -6.2091736282431835 7.845088041586092 a31.00496094574625,31.00496094574625 0 0,0 -0.41450566193730726,-0.3338964199404374 l 6.342930060535752 -7.737343327852245" fill="red" stroke="none" /><path d="M 82.98947788004972 112.3143062007846 l -9.432335114010852 6.828283221601765 a32.64450073886426,32.64450073886426 0 0,0 -0.3247115866845851,-0.4567475114179401 l 9.548161799225397 -6.665358483474321" fill="red" stroke="none" /><path d="M 82.18462484594161 111.11811171558189 l -10.844550191413832 6.767801378906562 a33.783090563647875,33.783090563647875 0 0,0 -0.3028123763706119,-0.49462125956783043 l 10.959130532239849 -6.580643003214174" fill="red" stroke="none" /><path d="M 81.99639281039703 110.81064883170644 l -7.782116533947905 4.672937380266329 a30.077316867215536,30.077316867215536 0 0,0 -0.26199676113195364,-0.44492777836499736 l 7.861187005209628 -4.538658433607773" fill="red" stroke="none" /><line stroke="#e1ed5e" stroke-width="0.3" x1="26.387840678322732" x2="22.057713659400548" y1="142.50000000000003" y2="145.00000000000006" /><path d="M 25.521815274538298 143.00000000000003 a86.0,86.0 0 0,1 -11.493303480769221,-40.785679425670985" fill="none" id="id33" stroke="none" /><text fill="#e1ed5e" style="font-size:6.75px; font-family:Arial;" text-anchor="middle"><textPath startOffset="21.40746469413373" xlink:href="#id33">September</textPath></text><path d="M 80.5471966667186 107.91128576633889 l -15.77982222399793 6.417516324883065 a38.034884948279505,38.034884948279505 0 0,0 -0.2407813334540613,-0.6069262503127398 l 15.887662232418116 -6.14568905735676" fill="red" stroke="none" /><line stroke="#e1ed5e" stroke-width="0.3" x1="15.003131293944662" x2="10.003315487706104" y1="100.72959589197737" y2="100.7725132973878" /><path d="M 14.003168132696942 100.73817937305945 a86.0,86.0 0 0,1 10.791469493833604,-42.45332614584628" fill="none" id="id34" stroke="none" /><text fill="#e1ed5e" style="font-size:6.75px; font-family:Arial;" text-anchor="middle"><textPath startOffset="22.145653131862435" xlink:href="#id34">October</textPath></text><line stroke="#e1ed5e" stroke-width="0.3" x1="26.387840678322718" x2="22.05771365940052" y1="57.49999999999999" y2="54.99999999999999" /><path d="M 25.521815274538284 56.99999999999999 a86.0,86.0 0 0,1 29.574782752854787,-30.34633250058573" fill="none" id="id35" stroke="none" /><text fill="#e1ed5e" style="font-size:6.75px; font-family:Arial;" text-anchor="middle"><textPath startOffset="21.40746469413373" xlink:href="#id35">November</textPath></text><path d="M 87.83215693770416 82.88440491214696 l -3.218985714777371 -4.527906532459608 a26.55552037154317,26.55552037154317 0 0,0 0.37380677039348736,-0.26094615703145246 l 3.140783853210118 4.582497505296186" fill="red" stroke="none" /><line stroke="#e1ed5e" stroke-width="0.3" x1="56.869717070023135" x2="54.33264160355391" y1="26.7553504044142" y2="22.446841604673864" /><path d="M 56.362301976729285 25.89364864446614 a86.0,86.0 0 0,1 42.16139366436587,-11.88097634709845" fill="none" id="id36" stroke="none" /><text fill="#e1ed5e" style="font-size:6.75px; font-family:Arial;" text-anchor="middle"><textPath startOffset="22.145653131862474" xlink:href="#id36">December</textPath></text><path d="M 90.61103034731259 81.2157712731953 l -3.2591504677156395 -6.520484153777186 a28.289634789951446,28.289634789951446 0 0,0 0.43625277518311556,-0.2133930932474092 l 3.146737443270471 6.57547099712181" fill="red" stroke="none" /><path d="M 99.63950707515114 79.00309439819443 l -0.20463065945566952 -11.918710031902402 a32.92046654000422,32.92046654000422 0 0,0 0.5651235843045187,-0.004850906296254474 l 2.9196722385118584e-15 11.92046654000422" fill="red" stroke="none" /></svg>