<?xml version="1.0" encoding="utf-8" ?>
<svg baseProfile="full" height="200mm" version="1.1" viewBox="0,0,200,200" width="200mm" xmlns="http://www.w3.org/2000/svg" xmlns:ev="http://www.w3.org/2001/xml-events" xmlns:xlink="http://www.w3.org/1999/xlink"><defs /><rect fill="#1a1a1a" height="200" width="200" x="0" y="0" /><rect fill="#1a1a1a" height="200" width="180" x="10" y="0" /><text alignment-baseline="middle" fill="#e1ed5e" style="dominant-baseline: central; font-size:9.0px; font-family:Arial;" text-anchor="middle" x="100.0" y="100.0">2026</text><line stroke="#e1ed5e" stroke-width="0.3" x1="100.0" x2="100.0" y1="15.0" y2="10.0" /><path d="M 100.0 14.0 a86.0,86.0 0 0,1 42.46469731375804,11.215312516191453" fill="none" id="id49" stroke="none" /><text fill="#e1ed5e" style="font-size:6.75px; font-family:Arial;" text-anchor="middle"><textPath startOffset="22.20632615414155" xlink:href="#id49">January</textPath></text><path d="M 100.0 79.0 l 0.0 -1.4892620438644784 a22.48926204386448,22.48926204386448 0 0,0 0.38711567724293394,0.0033320268508109886 l -0.025635197970405563 1.4890413936222262" fill="#ff0000" stroke="none" /><path d="M 100.36148047927253 79.00311137660856 l 0.48105430385355896 -27.942431801970628 a48.94657238823816,48.94657238823816 0 0,0 0.8422851218864571,0.021753739715165095 l -0.9619660609348839 27.930011270113102" fill="#a6ff21" stroke="none" /><path d="M 101.08401301168833 79.027996857942 l 2.9493540391069257 -57.06007354916866 a78.1362466625568,78.1362466625568 0 0,0 1.3425963408133195,0.080989077749428 l -3.9311124287598567 57.00085120203893" fill="#46fff4" stroke="none" /><path d="M 101.44485096284872 79.0497635885617 l 1.5193990888220354 -22.031178946917116 a43.083510123669136,43.083510123669136 0 0,0 0.7394152250132023,0.05739285236715612 l -1.898404503197579 22.001760832361494" fill="#ebff1a" stroke="none" /><path d="M 102.16513564639614 79.11191278185805 l 1.737151172772216 -16.75911865769762 a37.84890953088218,37.84890953088218 0 0,0 0.6474565971114754,0.07274929263769278 l -2.0253744733934167 16.72673341158933" fill="#ffd313" stroke="none" /><path d="M 102.88285421437855 79.19881850522331 l 4.213483074140516 -30.40230952825329 a51.69289599024161,51.69289599024161 0 0,0 0.8803325284564552,0.1297381308751935 l -4.7361845830256275 30.32527691321713" fill="#88ff25" stroke="none" /><path d="M 103.2404852339499 79.25152402106235 l 1.8600338179685911 -11.909595077861605 a33.05396950065049,33.05396950065049 0 0,0 0.5613993115265913,0.09263569665680713 l -2.0647623356340574 11.875813118265173" fill="#ff940d" stroke="none" /><path d="M 103.59715602781102 79.31037775812273 l 4.898187684970711 -28.172715358563032 a49.595351602521205,49.595351602521205 0 0,0 0.8398261428796955,0.15347285957765328 l -5.382408948953308 28.08422701763464" fill="#9fff22" stroke="none" /><path d="M 103.95276090670814 79.375362276772 l 6.064461891878369 -31.643029380817804 a53.21892311101263,53.21892311101263 0 0,0 0.8982178096442471,0.18017404262020129 l -6.608246110989742 31.533951382120396" fill="#78ff26" stroke="none" /><path d="M 104.307194497241 79.44645832069477 l 6.159121914752759 -29.390771432281976 a51.029189601876205,51.029189601876205 0 0,0 0.8581585518310342,0.1875602209700667 l -6.664123190737321 29.28039771321604" fill="#8fff24" stroke="none" /><path d="M 104.66035177308747 79.52364482259891 l 2.577035593013959 -11.322813958397685 a32.61237393404752,32.61237393404752 0 0,0 0.5462981267580351,0.1292911164190494 l -2.7715574067345172 11.276776929837766" fill="#ff8e0d" stroke="none" /><path d="M 105.01212808612495 79.60689891045804 l 7.807150995896438 -31.765353307985094 a53.71069056828129,53.71069056828129 0 0,0 0.8959227375551426,0.2283906543546937 l -8.352782622136605 31.626259657461535" fill="#72ff27" stroke="none" /><path d="M 105.71112130821622 79.79150937346287 l 15.02509558696259 -53.16547958719398 a76.24782092656417,76.24782092656417 0 0,0 1.2599399875614357,0.36781103219849526 l -15.938025792247453 52.89897022607678" fill="#43ffe2" stroke="none" /><path d="M 106.0581310904928 79.89281104454417 l 15.393327886567569 -51.09109523137183 a74.35967161972124,74.35967161972124 0 0,0 1.2223831582645452,0.37980039752911254 l -16.270496417542834 50.8185546989602" fill="#41ffce" stroke="none" /><path d="M 106.40334571778207 80.00007090966166 l 3.319558210100343 -10.368162479325449 a31.886609201580473,31.886609201580473 0 0,0 0.5212962228259795,0.1718631686441935 l -3.4975372551687403 10.309485586422019" fill="#ff850c" stroke="none" /><path d="M 107.76421540070413 80.48803036053334 l 23.292646202112408 -58.53590891839998 a84.0,84.0 0 0,0 1.33886452164645,0.5461564552656828 l -24.296794593347244 58.12629157695072" fill="#4dd2ff" stroke="none" /><path d="M 110.05341064243156 81.56283822128135 l 12.520903369079084 -22.962348723435834 a47.154205781757,47.154205781757 0 0,0 0.7092798907332001,0.3947134912719819 l -12.91430734888432 22.74341983460367" fill="#bbff1f" stroke="none" /><line stroke="#e1ed5e" stroke-width="0.3" x1="143.23703022742887" x2="145.7803849466894" y1="26.81831364943548" y2="22.513508569990506" /><path d="M 143.74570117128098 25.957352633546492 a86.0,86.0 0 0,1 28.547481713284135,27.462654790039103" fill="none" id="id50" stroke="none" /><text fill="#e1ed5e" style="font-size:6.75px; font-family:Arial;" text-anchor="middle"><textPath startOffset="19.985693538727396" xlink:href="#id50">February</textPath></text><path d="M 110.99172775467656 82.1063720568725 l 3.162141624900423 -5.147706257132438 a27.04135906610825,27.04135906610825 0 0,0 0.3945216434133443,0.24704941691195106 l -3.2502824206860303 5.092512498897543" fill="#ff4206" stroke="none" /><path d="M 111.60114157652 82.49532879139004 l 3.511930375913179 -5.299063556151418 a27.357179369609906,27.357179369609906 0 0,0 0.3902896434958728,0.263525309503841 l -3.602624713815594 5.237826334348907" fill="#ff4606" stroke="none" /><line stroke="#e1ed5e" stroke-width="0.3" x1="172.23445277983987" x2="176.4835382374775" y1="55.19839476539836" y2="52.563006222186495" /><path d="M 173.08426987136738 54.67131705675599 a86.0,86.0 0 0,1 12.851231095245387,41.99856678651699" fill="none" id="id51" stroke="none" /><text fill="#e1ed5e" style="font-size:6.75px; font-family:Arial;" text-anchor="middle"><textPath startOffset="22.20632615414155" xlink:href="#id51">March</textPath></text><line stroke="#e1ed5e" stroke-width="0.3" x1="184.98032266829074" x2="189.97916517819016" y1="98.17113171792111" y2="98.06355123074" /><path d="M 185.9800911702706 98.14961562048488 a86.0,86.0 0 0,1 -9.607161424134198,41.387399972396054" fill="none" id="id52" stroke="none" /><text fill="#e1ed5e" style="font-size:6.75px; font-family:Arial;" text-anchor="middle"><textPath startOffset="21.466115282336823" xlink:href="#id52">April</textPath></text><line stroke="#e1ed5e" stroke-width="0.3" x1="174.80103733775053" x2="179.2010983576182" y1="140.37084112569926" y2="142.7455964860345" /><path d="M 175.68104954172406 140.8457921977663 a86.0,86.0 0 0,1 -30.038265399797805,32.042727171017184" fill="none" id="id53" stroke="none" /><text fill="#e1ed5e" style="font-size:6.75px; font-family:Arial;" text-anchor="middle"><textPath startOffset="22.206326154141568" xlink:href="#id53">May</textPath></text><line stroke="#e1ed5e" stroke-width="0.3" x1="143.8653032363475" x2="146.44561519142675" y1="172.8068346515853" y2="177.08958963109032" /><path d="M 144.38136562736335 173.6633856474863 a86.0,86.0 0 0,1 -40.68145358897372,12.25698825130547" fill="none" id="id54" stroke="none" /><text fill="#e1ed5e" style="font-size:6.75px; font-family:Arial;" text-anchor="middle"><textPath startOffset="21.466115282336833" xlink:href="#id54">June</textPath></text><line stroke="#e1ed5e" stroke-width="0.3" x1="102.19456741930631" x2="102.32365962044197" y1="184.97166512339345" y2="189.96999836594603" /><path d="M 102.22038585953345 185.97133177190398 a86.0,86.0 0 0,1 -42.740103519485714,-10.115201625700543" fill="none" id="id55" stroke="none" /><text fill="#e1ed5e" style="font-size:6.75px; font-family:Arial;" text-anchor="middle"><textPath startOffset="22.20632615414155" xlink:href="#id55">July</textPath></text><line stroke="#e1ed5e" stroke-width="0.3" x1="58.666819895761336" x2="56.23545636021788" y1="174.27360380694188" y2="178.64263932499728" /><path d="M 58.180547188652646 175.14741091055294 a86.0,86.0 0 0,1 -31.652253787137756,-30.449443065178592" fill="none" id="id56" stroke="none" /><text fill="#e1ed5e" style="font-size:6.75px; font-family:Arial;" text-anchor="middle"><textPath startOffset="22.20632615414155" xlink:href="#id56">August</textPath></text><line stroke="#e1ed5e" stroke-width="0.3" x1="26.63291911575756" x2="22.317208475507996" y1="142.92168965132927" y2="145.44649492493687" /><path d="M 25.769776987707644 143.4266507060508 a86.0,86.0 0 0,1 -11.730757126820373,-40.83630448921669" fill="none" id="id57" stroke="none" /><text fill="#e1ed5e" style="font-size:6.75px; font-family:Arial;" text-anchor="middle"><textPath startOffset="21.46611528233685" xlink:href="#id57">September</textPath></text><line stroke="#e1ed5e" stroke-width="0.3" x1="15.007084014347285" x2="10.007500721073583" y1="101.09737516637583" y2="101.16192664675087" /><path d="M 14.007167355692545 101.11028546245083 a86.0,86.0 0 0,1 10.666146001902534,-42.60595125391555" fill="none" id="id58" stroke="none" /><text fill="#e1ed5e" style="font-size:6.75px; font-family:Arial;" text-anchor="middle"><textPath startOffset="22.20632615414155" xlink:href="#id58">October</textPath></text><line stroke="#e1ed5e" stroke-width="0.3" x1="26.266209847984243" x2="21.928928074336255" y1="57.711370442889674" y2="55.22380399835377" /><path d="M 25.398753493254645 57.213857153982495 a86.0,86.0 0 0,1 29.58750427330803,-30.492523968695096" fill="none" id="id59" stroke="none" /><text fill="#e1ed5e" style="font-size:6.75px; font-family:Arial;" text-anchor="middle"><textPath startOffset="21.46611528233685" xlink:href="#id59">November</textPath></text><line stroke="#e1ed5e" stroke-width="0.3" x1="56.762969772571076" x2="54.21961505331055" y1="26.818313649435495" y2="22.513508569990535" /><path d="M 56.25429882871897 25.957352633546506 a86.0,86.0 0 0,1 42.265352541879196,-11.944610805530505" fill="none" id="id60" stroke="none" /><text fill="#e1ed5e" style="font-size:6.75px; font-family:Arial;" text-anchor="middle"><textPath startOffset="22.20632615414155" xlink:href="#id60">December</textPath></text></svg>