<?xml version="1.0" encoding="utf-8" ?>
<svg baseProfile="full" height="200mm" version="1.1" viewBox="0,0,200,200" width="200mm" xmlns="http://www.w3.org/2000/svg" xmlns:ev="http://www.w3.org/2001/xml-events" xmlns:xlink="http://www.w3.org/1999/xlink"><defs /><rect fill="#1a1a1a" height="200" width="200" x="0" y="0" /><rect fill="#1a1a1a" height="200" width="180" x="10" y="0" /><text alignment-baseline="middle" fill="#e1ed5e" style="dominant-baseline: central; font-size:9.0px; font-family:Arial;" text-anchor="middle" x="100.0" y="100.0">2023</text><line stroke="#e1ed5e" stroke-width="0.3" x1="100.0" x2="100.0" y1="15.0" y2="10.0" /><path d="M 100.0 14.0 a86.0,86.0 0 0,1 42.46469731375804,11.215312516191453" fill="none" id="id13" stroke="none" /><text fill="#e1ed5e" style="font-size:6.75px; font-family:Arial;" text-anchor="middle"><textPath startOffset="22.20632615414155" xlink:href="#id13">January</textPath></text><line stroke="#e1ed5e" stroke-width="0.3" x1="143.23703022742887" x2="145.7803849466894" y1="26.81831364943548" y2="22.513508569990506" /><path d="M 143.74570117128098 25.957352633546492 a86.0,86.0 0 0,1 28.547481713284135,27.462654790039103" fill="none" id="id14" stroke="none" /><text fill="#e1ed5e" style="font-size:6.75px; font-family:Arial;" text-anchor="middle"><textPath startOffset="19.985693538727396" xlink:href="#id14">February</textPath></text><line stroke="#e1ed5e" stroke-width="0.3" x1="172.23445277983987" x2="176.4835382374775" y1="55.19839476539836" y2="52.563006222186495" /><path d="M 173.08426987136738 54.67131705675599 a86.0,86.0 0 0,1 12.851231095245387,41.99856678651699" fill="none" id="id15" stroke="none" /><text fill="#e1ed5e" style="font-size:6.75px; font-family:Arial;" text-anchor="middle"><textPath startOffset="22.20632615414155" xlink:href="#id15">March</textPath></text><path d="M 118.21658344932153 89.55222093294921 l 16.339367397065235 -9.371137081485408 a39.835953311055675,39.835953311055675 0 0,0 0.3360302252802341,0.5977602755133947 l -16.4982552636379 9.08849329603722" fill="red" stroke="none" /><path d="M 118.3937258080291 89.86733742301442 l 6.340455020379589 -3.4928046648393862 a28.238857250435355,28.238857250435355 0 0,0 0.2308753846297944,0.4277770238249316 l -6.399638504227848 3.383146657681996" fill="red" stroke="none" /><path d="M 118.73160827565052 90.50648371742162 l 5.433815014212453 -2.7539552693402327 a27.091848260930956,27.091848260930956 0 0,0 0.207239721604961,0.41778263281637573 l -5.480414748770822 2.660013048024907" fill="red" stroke="none" /><path d="M 119.04729006885535 91.15688171328212 l 5.485497619961684 -2.546761462626569 a27.047865581023203,27.047865581023203 0 0,0 0.1924232594710334,0.42397914557481575 l -5.528523196396065 2.4519603082096904" fill="red" stroke="none" /><path d="M 119.47837535516314 92.15188598940014 l 6.058400881752507 -2.4410157405303856 a27.53167506000847,27.53167506000847 0 0,0 0.1733269059759163,0.44109807003932217 l -6.099521337610124 2.336368665595279" fill="red" stroke="none" /><path d="M 120.08093135843002 93.85539295169968 l 9.453074572740483 -2.892566465717502 a30.885725043535558,30.885725043535558 0 0,0 0.15118430466213656,0.5097183175769608 l -9.501464774514321 2.729418761394011" fill="red" stroke="none" /><path d="M 120.67395015179393 96.31383870115 l 17.600637610990947 -3.138190269414416 a38.87821810137902,38.87821810137902 0 0,0 0.11179920088347849,0.6598452122041869 l -17.65204867339465 2.834759268894391" fill="red" stroke="none" /><path d="M 120.98425023603335 99.18683210126433 l 22.152126919993883 -0.8584246898240537 a43.16875323575093,43.16875323575093 0 0,0 0.02238259881903414,0.7427694877390704 l -22.163621213268563 0.4769850546599843" fill="red" stroke="none" /><line stroke="#e1ed5e" stroke-width="0.3" x1="184.98032266829074" x2="189.97916517819016" y1="98.17113171792111" y2="98.06355123074" /><path d="M 185.9800911702706 98.14961562048488 a86.0,86.0 0 0,1 -9.607161424134198,41.387399972396054" fill="none" id="id16" stroke="none" /><text fill="#e1ed5e" style="font-size:6.75px; font-family:Arial;" text-anchor="middle"><textPath startOffset="21.466115282336823" xlink:href="#id16">April</textPath></text><path d="M 120.8583938346157 102.4346265915055 l 6.097892093176233 0.7117561572521517 a27.139290252741564,27.139290252741564 0 0,0 -0.058153671499290294,0.4635419797571218 l -6.0847369124300945 -0.8166158912966685" fill="red" stroke="none" /><path d="M 120.23288151984713 105.62410040840565 l 11.581508215012978 3.2192925668108257 a33.02061467501294,33.02061467501294 0 0,0 -0.15693811805301008,0.5463221772893783 l -11.524377460073868 -3.418172219604786" fill="red" stroke="none" /><path d="M 120.02730092923936 106.31721596034902 l 9.472130043673284 2.987796074059739 a30.932178660516776,30.932178660516776 0 0,0 -0.16454114520617188,0.5064055737890018 l -9.419296647450864 -3.150400547826536" fill="red" stroke="none" /><path d="M 119.79798401119884 107.00284435728193 l 13.580073374086309 4.803475957218748 a35.40457476349602,35.40457476349602 0 0,0 -0.20817171584373195,0.572799155807567 l -13.49537739723735 -5.0365229100324465" fill="red" stroke="none" /><path d="M 119.12269723197855 108.67885076344098 l 13.164573465060954 5.97475173515561 a35.45695862945357,35.45695862945357 0 0,0 -0.25702138633632465,0.553601200472501 l -13.059777461884797 -6.200473002906941" fill="red" stroke="none" /><path d="M 118.81262510543309 109.33194174019688 l 13.317677517335106 6.606190789960992 a35.866145808820065,35.866145808820065 0 0,0 -0.2791092027484289,0.5507089361195758 l -13.201989644800408 -6.8344539377832625" fill="red" stroke="none" /><line stroke="#e1ed5e" stroke-width="0.3" x1="174.80103733775053" x2="179.2010983576182" y1="140.37084112569926" y2="142.7455964860345" /><path d="M 175.68104954172406 140.8457921977663 a86.0,86.0 0 0,1 -30.038265399797805,32.042727171017184" fill="none" id="id17" stroke="none" /><text fill="#e1ed5e" style="font-size:6.75px; font-family:Arial;" text-anchor="middle"><textPath startOffset="22.206326154141568" xlink:href="#id17">May</textPath></text><path d="M 117.94076556474637 110.91462005526583 l 8.237029608137657 5.011160099737286 a30.6415964606768,30.6415964606768 0 0,0 -0.27801464870399656,0.4482481355021316 l -8.149550319765698 -5.152204566604691" fill="red" stroke="none" /><path d="M 117.55443506779139 111.5257021239791 l 4.199613754863443 2.7573372191926273 a26.023909257777568,26.023909257777568 0 0,0 -0.24908214028030848,0.3723440038104723 l -4.1515285091724135 -2.8292181372089065" fill="red" stroke="none" /><path d="M 117.14729908036423 112.12312394758627 l 16.31483148487331 11.534570158725007 a40.98049136348661,40.98049136348661 0 0,0 -0.41218609020692654,0.5724904284831963 l -16.11386560229078 -11.813694192659336" fill="red" stroke="none" /><path d="M 116.71984013943494 112.70617746262583 l 12.735234757685566 9.678092105539843 a36.99536405139549,36.99536405139549 0 0,0 -0.38967249155735345,0.5037042237183553 l -12.566755448910143 -9.895874323371451" fill="red" stroke="none" /><path d="M 112.34349029814194 116.9893568818739 l 7.993030134465375 11.001462166859412 a34.59855509013037,34.59855509013037 0 0,0 -0.4848290123304876,0.3459126272891317 l -7.802473794286002 -11.137419055992762" fill="red" stroke="none" /><line stroke="#e1ed5e" stroke-width="0.3" x1="143.8653032363475" x2="146.44561519142675" y1="172.8068346515853" y2="177.08958963109032" /><path d="M 144.38136562736335 173.6633856474863 a86.0,86.0 0 0,1 -40.68145358897372,12.25698825130547" fill="none" id="id18" stroke="none" /><text fill="#e1ed5e" style="font-size:6.75px; font-family:Arial;" text-anchor="middle"><textPath startOffset="21.466115282336833" xlink:href="#id18">June</textPath></text><line stroke="#e1ed5e" stroke-width="0.3" x1="102.19456741930631" x2="102.32365962044197" y1="184.97166512339345" y2="189.96999836594603" /><path d="M 102.22038585953345 185.97133177190398 a86.0,86.0 0 0,1 -42.740103519485714,-10.115201625700543" fill="none" id="id19" stroke="none" /><text fill="#e1ed5e" style="font-size:6.75px; font-family:Arial;" text-anchor="middle"><textPath startOffset="22.20632615414155" xlink:href="#id19">July</textPath></text><path d="M 96.22490169976321 120.6578951692458 l -11.325294900710388 61.97368550773742 a84.0,84.0 0 0,0 -1.4201295417132198,-0.2721712066061275 l 12.390392056995301 -61.76955710278283" fill="red" stroke="none" /><path d="M 95.86986931433489 120.58985236759428 l -6.9534007039547365 34.66464013937095 a56.355156022026634,56.355156022026634 0 0,0 -0.949473113955816,-0.1989713225836153 l 7.549065279339939 -34.5398128360608" fill="red" stroke="none" /><path d="M 93.42475214034765 119.94407469862007 l -8.153220695175829 24.730389796669847 a47.03972325504777,47.03972325504777 0 0,0 -0.7668152868790234,-0.2601453788561976 l 8.577705714992078 -24.586381430915527" fill="red" stroke="none" /><path d="M 92.7421414339146 119.70592522655815 l -11.161771430137124 30.305500058380048 a53.295641737657085,53.295641737657085 0 0,0 -0.8581354083425257,-0.3244733837071149 l 11.681777059239932 -30.1088784245663" fill="red" stroke="none" /><line stroke="#e1ed5e" stroke-width="0.3" x1="58.666819895761336" x2="56.23545636021788" y1="174.27360380694188" y2="178.64263932499728" /><path d="M 58.180547188652646 175.14741091055294 a86.0,86.0 0 0,1 -31.652253787137756,-30.449443065178592" fill="none" id="id20" stroke="none" /><text fill="#e1ed5e" style="font-size:6.75px; font-family:Arial;" text-anchor="middle"><textPath startOffset="22.20632615414155" xlink:href="#id20">August</textPath></text><line stroke="#e1ed5e" stroke-width="0.3" x1="26.63291911575756" x2="22.317208475507996" y1="142.92168965132927" y2="145.44649492493687" /><path d="M 25.769776987707644 143.4266507060508 a86.0,86.0 0 0,1 -11.730757126820373,-40.83630448921669" fill="none" id="id21" stroke="none" /><text fill="#e1ed5e" style="font-size:6.75px; font-family:Arial;" text-anchor="middle"><textPath startOffset="21.46611528233685" xlink:href="#id21">September</textPath></text><line stroke="#e1ed5e" stroke-width="0.3" x1="15.007084014347285" x2="10.007500721073583" y1="101.09737516637583" y2="101.16192664675087" /><path d="M 14.007167355692545 101.11028546245083 a86.0,86.0 0 0,1 10.666146001902534,-42.60595125391555" fill="none" id="id22" stroke="none" /><text fill="#e1ed5e" style="font-size:6.75px; font-family:Arial;" text-anchor="middle"><textPath startOffset="22.20632615414155" xlink:href="#id22">October</textPath></text><path d="M 79.01574976396665 99.18683210126434 l -39.4238626063379 -1.5277276602711187 a60.45345225208264,60.45345225208264 0 0,0 0.04924478275531426,-1.0394795321201562 l 39.39172421534908 2.206118299014284" fill="red" stroke="none" /><path d="M 79.54389044137918 95.25157060432595 l -9.084276450339662 -2.1087120799586985 a30.325810702687434,30.325810702687434 0 0,0 0.12241114538511556,-0.5074732258488519 l 9.046632504693731 2.2647705374669473" fill="red" stroke="none" /><path d="M 79.91906864156998 93.8553929516997 l -8.937512467218594 -2.7348085166024303 a30.34656657410458,30.34656657410458 0 0,0 0.1571439381617618,-0.49818922742629934 l 8.88911304528863 2.8882479104551444" fill="red" stroke="none" /><line stroke="#e1ed5e" stroke-width="0.3" x1="26.266209847984243" x2="21.928928074336255" y1="57.711370442889674" y2="55.22380399835377" /><path d="M 25.398753493254645 57.213857153982495 a86.0,86.0 0 0,1 29.58750427330803,-30.492523968695096" fill="none" id="id23" stroke="none" /><text fill="#e1ed5e" style="font-size:6.75px; font-family:Arial;" text-anchor="middle"><textPath startOffset="21.46611528233685" xlink:href="#id23">November</textPath></text><path d="M 81.96595687620814 89.24020034530311 l -15.77968163573279 -9.414761395983902 a39.37487645314633,39.37487645314633 0 0,0 0.3522817728561063,-0.5790586083200719 l 15.615284064590467 9.684987777511049" fill="red" stroke="none" /><path d="M 83.39014120810768 87.1503855733568 l -3.9314246653375298 -3.041404007699378 a25.970537016990633,25.970537016990633 0 0,0 0.27658117279205613,-0.35123000218806033 l 3.8784894119515023 3.108626403840486" fill="red" stroke="none" /><line stroke="#e1ed5e" stroke-width="0.3" x1="56.762969772571076" x2="54.21961505331055" y1="26.818313649435495" y2="22.513508569990535" /><path d="M 56.25429882871897 25.957352633546506 a86.0,86.0 0 0,1 42.265352541879196,-11.944610805530505" fill="none" id="id24" stroke="none" /><text fill="#e1ed5e" style="font-size:6.75px; font-family:Arial;" text-anchor="middle"><textPath startOffset="22.20632615414155" xlink:href="#id24">December</textPath></text></svg>