<?xml version="1.0" encoding="utf-8" ?>
<svg baseProfile="full" height="200mm" version="1.1" viewBox="0,0,200,200" width="200mm" xmlns="http://www.w3.org/2000/svg" xmlns:ev="http://www.w3.org/2001/xml-events" xmlns:xlink="http://www.w3.org/1999/xlink"><defs /><rect fill="#1a1a1a" height="200" width="200" x="0" y="0" /><rect fill="#1a1a1a" height="200" width="180" x="10" y="0" /><text alignment-baseline="middle" fill="#e1ed5e" style="dominant-baseline: central; font-size:9.0px; font-family:Arial;" text-anchor="middle" x="100.0" y="100.0">2025</text><line stroke="#e1ed5e" stroke-width="0.3" x1="100.0" x2="100.0" y1="15.0" y2="10.0" /><path d="M 100.0 14.0 a86.0,86.0 0 0,1 42.46469731375804,11.215312516191453" fill="none" id="id37" stroke="none" /><text fill="#e1ed5e" style="font-size:6.75px; font-family:Arial;" text-anchor="middle"><textPath startOffset="22.20632615414155" xlink:href="#id37">January</textPath></text><line stroke="#e1ed5e" stroke-width="0.3" x1="143.23703022742887" x2="145.7803849466894" y1="26.81831364943548" y2="22.513508569990506" /><path d="M 143.74570117128098 25.957352633546492 a86.0,86.0 0 0,1 28.547481713284135,27.462654790039103" fill="none" id="id38" stroke="none" /><text fill="#e1ed5e" style="font-size:6.75px; font-family:Arial;" text-anchor="middle"><textPath startOffset="19.985693538727396" xlink:href="#id38">February</textPath></text><line stroke="#e1ed5e" stroke-width="0.3" x1="172.23445277983987" x2="176.4835382374775" y1="55.19839476539836" y2="52.563006222186495" /><path d="M 173.08426987136738 54.67131705675599 a86.0,86.0 0 0,1 12.851231095245387,41.99856678651699" fill="none" id="id39" stroke="none" /><text fill="#e1ed5e" style="font-size:6.75px; font-family:Arial;" text-anchor="middle"><textPath startOffset="22.20632615414155" xlink:href="#id39">March</textPath></text><line stroke="#e1ed5e" stroke-width="0.3" x1="184.98032266829074" x2="189.97916517819016" y1="98.17113171792111" y2="98.06355123074" /><path d="M 185.9800911702706 98.14961562048488 a86.0,86.0 0 0,1 -9.607161424134198,41.387399972396054" fill="none" id="id40" stroke="none" /><text fill="#e1ed5e" style="font-size:6.75px; font-family:Arial;" text-anchor="middle"><textPath startOffset="21.466115282336823" xlink:href="#id40">April</textPath></text><path d="M 120.23288151984713 105.62410040840565 l 2.4498582753439697 0.6809830282148613 a23.54274329297867,23.54274329297867 0 0,0 -0.11189233945427,0.38951191253619427 l -2.4377732990036005 -0.7230524162556377" fill="#ff1302" stroke="none" /><path d="M 119.54520255179757 107.68017299344265 l 3.480407049104318 1.367605587810091 a24.739462297077537,24.739462297077537 0 0,0 -0.15915412766728476,0.3950074927351895 l -3.456350307179641 -1.4273124483880941" fill="#ff2403" stroke="none" /><path d="M 119.41010516605496 108.01547362559984 l 4.32976904407901 1.787993897037067 a25.68442335308271,25.68442335308271 0 0,0 -0.17226789656776412,0.4071904203721966 l -4.298350166318937 -1.8622588430754272" fill="#ff3104" stroke="none" /><path d="M 118.97047184881838 109.00673069616215 l 2.2427701471350807 1.0648141432441942 a23.482709627107685,23.482709627107685 0 0,0 -0.17650805907148784,0.36365888164742705 l -2.224108831448879 -1.1032619808568966" fill="#ff1202" stroke="none" /><line stroke="#e1ed5e" stroke-width="0.3" x1="174.80103733775053" x2="179.2010983576182" y1="140.37084112569926" y2="142.7455964860345" /><path d="M 175.68104954172406 140.8457921977663 a86.0,86.0 0 0,1 -30.038265399797805,32.042727171017184" fill="none" id="id41" stroke="none" /><text fill="#e1ed5e" style="font-size:6.75px; font-family:Arial;" text-anchor="middle"><textPath startOffset="22.206326154141568" xlink:href="#id41">May</textPath></text><path d="M 118.30583269289576 110.29060199501025 l 1.1111874248672389 0.6246526843658298 a22.27472682142823,22.27472682142823 0 0,0 -0.19076500738499613,0.33261487000606604 l -1.100270421329863 -0.643687400230211" fill="#ff0000" stroke="none" /><path d="M 115.07121518719521 114.62390073753431 l 6.357713388788433 6.169016125144837 a29.858740287776627,29.858740287776627 0 0,0 -0.3610908104815643,0.36578308460919245 l -6.2505819532513325 -6.277539703734694" fill="#ff6c09" stroke="none" /><path d="M 111.45004920935366 117.60387380957326 l 5.411362663777145 8.319697472841373 a30.924727296934883,30.924727296934883 0 0,0 -0.44872986543390936,0.2864006310386824 l -5.267350996296305 -8.411612532703863" fill="#ff7a0b" stroke="none" /><line stroke="#e1ed5e" stroke-width="0.3" x1="143.8653032363475" x2="146.44561519142675" y1="172.8068346515853" y2="177.08958963109032" /><path d="M 144.38136562736335 173.6633856474863 a86.0,86.0 0 0,1 -40.68145358897372,12.25698825130547" fill="none" id="id42" stroke="none" /><text fill="#e1ed5e" style="font-size:6.75px; font-family:Arial;" text-anchor="middle"><textPath startOffset="21.466115282336833" xlink:href="#id42">June</textPath></text><path d="M 109.2508944713604 118.85261126421891 l 0.8730861022128228 1.7792823100694086 a22.981949767477246,22.981949767477246 0 0,0 -0.3566441092321825,0.1712108456582736 l -0.8423293249804077 -1.7940474322272422" fill="#ff0a01" stroke="none" /><path d="M 107.59598834532513 119.57807347666477 l 0.913503725305926 2.354485320696066 a23.525488107578624,23.525488107578624 0 0,0 -0.3787937190629686,0.14322737245950343 l -0.8728397854826826 -2.3698609432622004" fill="#ff1202" stroke="none" /><path d="M 106.91757812671514 119.82793768551818 l 0.9155589085172234 2.62427755103952 a23.779402953847324,23.779402953847324 0 0,0 -0.3876385411325642,0.1315080396383704 l -0.8702506344474323 -2.6396485775760135" fill="#ff1602" stroke="none" /><path d="M 101.98527174616119 120.90594882070398 l 0.24763268273863465 2.6077015409492383 a23.61943300586775,23.61943300586775 0 0,0 -0.4050796670850595,0.03495197816244557 l -0.2027086979120335 -2.611577771390347" fill="#ff1402" stroke="none" /><path d="M 101.62511606390274 120.93702456842531 l 0.33743672499181104 4.347333189529889 a25.360409316126333,25.360409316126333 0 0,0 -0.435519428632576,0.030035969687461257 l -0.26255453558030467 -4.352497503733635" fill="#ff2d04" stroke="none" /><line stroke="#e1ed5e" stroke-width="0.3" x1="102.19456741930631" x2="102.32365962044197" y1="184.97166512339345" y2="189.96999836594603" /><path d="M 102.22038585953345 185.97133177190398 a86.0,86.0 0 0,1 -42.740103519485714,-10.115201625700543" fill="none" id="id43" stroke="none" /><text fill="#e1ed5e" style="font-size:6.75px; font-family:Arial;" text-anchor="middle"><textPath startOffset="22.20632615414155" xlink:href="#id43">July</textPath></text><path d="M 94.46302465271185 120.25689768951611 l -1.92883954476101 7.056615366158907 a28.315479643560213,28.315479643560213 0 0,0 -0.46905108705537496,-0.13255852242652091 l 2.050021799920999 -7.022368050393864" fill="#ff5608" stroke="none" /><path d="M 92.7421414339146 119.70592522655815 l -2.8161051704800197 7.64605116155278 a29.148162166788712,29.148162166788712 0 0,0 -0.4693267446999876,-0.1774592161523603 l 2.9473021359402902 -7.596443695293787" fill="#ff6209" stroke="none" /><path d="M 92.40401165467489 119.57807347666478 l -16.81824679768961 43.347732590518646 a67.49601430324012,67.49601430324012 0 0,0 -1.0795470788397925,-0.4295740619829194 l 17.56191495257126 -43.05181168412966" fill="#38ff84" stroke="none" /><path d="M 91.7346041902142 119.30500536409082 l -7.657480353787076 17.885132509959092 a40.4554611939021,40.4554611939021 0 0,0 -0.6378079427850931,-0.27959625866933024 l 7.964208971229912 -17.75067169799531" fill="#fff517" stroke="none" /><line stroke="#e1ed5e" stroke-width="0.3" x1="58.666819895761336" x2="56.23545636021788" y1="174.27360380694188" y2="178.64263932499728" /><path d="M 58.180547188652646 175.14741091055294 a86.0,86.0 0 0,1 -31.652253787137756,-30.449443065178592" fill="none" id="id44" stroke="none" /><text fill="#e1ed5e" style="font-size:6.75px; font-family:Arial;" text-anchor="middle"><textPath startOffset="22.20632615414155" xlink:href="#id44">August</textPath></text><path d="M 87.95078237400918 117.19931262002967 l -28.904371542850065 41.25872215791172 a71.37603446472217,71.37603446472217 0 0,0 -1.0001912566420825,-0.7136099048891994 l 29.610290127341035 -40.7550679911783" fill="#3dffaf" stroke="none" /><path d="M 87.36589467227662 116.77436683061367 l -31.19206582537138 41.413866735090124 a72.84643988169395,72.84643988169395 0 0,0 -0.9951214682659201,-0.7630167077100266 l 31.900316022130784 -40.870810685552726" fill="#3fffbf" stroke="none" /><path d="M 83.72743513129214 113.27417163493432 l -26.86038686395645 21.911074762315916 a55.66375022586566,55.66375022586566 0 0,0 -0.5992655654247817,-0.747675934160408 l 27.233570341436092 -21.44547099457725" fill="#5dff2a" stroke="none" /><path d="M 83.50135304334701 112.99209946851258 l -12.155597929051046 9.572102355326395 a36.47202974769617,36.47202974769617 0 0,0 -0.3841602067814383,-0.4965788525820194 l 12.318564953050553 -9.361445508631123" fill="#ffc312" stroke="none" /><path d="M 82.05923443525364 110.91462005526583 l -49.529247965896786 30.132098946383728 a78.97490656294282,78.97490656294282 0 0,0 -0.6965553826382014,-1.1674668870923806 l 50.04058422423322 -29.275069965405233" fill="#47fffd" stroke="none" /><line stroke="#e1ed5e" stroke-width="0.3" x1="26.63291911575756" x2="22.317208475507996" y1="142.92168965132927" y2="145.44649492493687" /><path d="M 25.769776987707644 143.4266507060508 a86.0,86.0 0 0,1 -11.730757126820373,-40.83630448921669" fill="none" id="id45" stroke="none" /><text fill="#e1ed5e" style="font-size:6.75px; font-family:Arial;" text-anchor="middle"><textPath startOffset="21.46611528233685" xlink:href="#id45">September</textPath></text><path d="M 81.87401531095188 110.60418214915194 l -19.907365044694995 11.646336939209439 a44.06383201300986,44.06383201300986 0 0,0 -0.3773710585436572,-0.6579782492720619 l 20.104888099391026 -11.30193884407907" fill="#ddff1b" stroke="none" /><path d="M 81.51974371655577 109.97397251340807 l -44.61940311878476 24.081522109091175 a71.70316402126466,71.70316402126466 0 0,0 -0.5768604625586788,-1.0912025996196613 l 45.02731608956833 -23.309904494385385" fill="#3effb3" stroke="none" /><path d="M 81.35079622478065 109.6543875284942 l -6.0414332489307485 3.12755110168349 a27.802976671643638,27.802976671643638 0 0,0 -0.21636187769435228,-0.42690251094761866 l 6.094373796411367 -3.0230943790331866" fill="#ff4f07" stroke="none" /><path d="M 81.18737489456691 109.33194174019688 l -11.058068586999527 5.485319100053645 a33.34380842787991,33.34380842787991 0 0,0 -0.25062912249540625,-0.5163702262344934 l 11.150850966109651 -5.294159917853867" fill="#ff9b0e" stroke="none" /><path d="M 81.02952815118164 109.00673069616217 l -16.821912697293914 7.9866457021370545 a39.62158039390971,39.62158039390971 0 0,0 -0.28721001223211984,-0.6186248149457932 l 16.956897326365862 -7.695900819912434" fill="#ffeb16" stroke="none" /><line stroke="#e1ed5e" stroke-width="0.3" x1="15.007084014347285" x2="10.007500721073583" y1="101.09737516637583" y2="101.16192664675087" /><path d="M 14.007167355692545 101.11028546245083 a86.0,86.0 0 0,1 10.666146001902534,-42.60595125391555" fill="none" id="id46" stroke="none" /><text fill="#e1ed5e" style="font-size:6.75px; font-family:Arial;" text-anchor="middle"><textPath startOffset="22.20632615414155" xlink:href="#id46">October</textPath></text><path d="M 79.81627453868168 94.20196356495316 l -15.001461669203433 -4.309364071746499 a36.60815398807429,36.60815398807429 0 0,0 0.17919534988574212,-0.6041576370344778 l 14.925060422205984 4.566951095527516" fill="#ffc512" stroke="none" /><path d="M 80.65960295795068 91.81776055985345 l -27.07276690603869 -11.453532243979817 a50.39588591644397,50.39588591644397 0 0,0 0.3448741424714955,-0.7960170698952677 l 26.871602053724512 11.917848458461684" fill="#95ff23" stroke="none" /><path d="M 81.6062741919709 89.86733742301443 l -16.84513401305502 -9.27958048302985 a40.231982577436256,40.231982577436256 0 0,0 0.33937087091661394,-0.6037029113412672 l 16.682905500845976 9.568166904305901" fill="#fff316" stroke="none" /><line stroke="#e1ed5e" stroke-width="0.3" x1="26.266209847984243" x2="21.928928074336255" y1="57.711370442889674" y2="55.22380399835377" /><path d="M 25.398753493254645 57.213857153982495 a86.0,86.0 0 0,1 29.58750427330803,-30.492523968695096" fill="none" id="id47" stroke="none" /><text fill="#e1ed5e" style="font-size:6.75px; font-family:Arial;" text-anchor="middle"><textPath startOffset="21.46611528233685" xlink:href="#id47">November</textPath></text><path d="M 82.95767976084542 87.72973835380427 l -35.19465790899382 -25.339722234507718 a64.36779298342384,64.36779298342384 0 0,0 0.6551335195495377,-0.8936013844117195 l 34.75326177693065 25.941786062590936" fill="#35ff61" stroke="none" /><path d="M 84.31358615837235 86.03803664274999 l -21.769223557106994 -19.37607312217731 a50.14328917461555,50.14328917461555 0 0,0 0.5794089523166235,-0.6397978367368992 l 21.432470964174325 19.747923746183766" fill="#98ff23" stroke="none" /><path d="M 86.37877921826538 84.01681056812374 l -19.708339430363946 -23.125836336609815 a51.3845840743312,51.3845840743312 0 0,0 0.6781357234615153,-0.5679191662596482 l 19.30734616994332 23.461656660263277" fill="#8aff24" stroke="none" /><path d="M 86.93701828274178 83.55741782278169 l -30.38148586154693 -38.24165789687192 a69.841161757853,69.841161757853 0 0,0 0.947736067182505,-0.7397230331763424 l 29.718717239205 38.75895931927149" fill="#3bff9e" stroke="none" /><path d="M 88.09926311788651 82.69761687909137 l -5.831679101266609 -8.478630109028297 a31.29056119295109,31.29056119295109 0 0,0 0.44640501156157414,-0.3014146565154126 l 5.684869395298494 8.577756677842375" fill="#ff7f0b" stroke="none" /><path d="M 88.39885842347998 82.49532879139004 l -7.486223245933845 -11.295774269279608 a34.5513119228538,34.5513119228538 0 0,0 0.49858032452558126,-0.3242905119854271 l 7.290675895623977 11.42296370542457" fill="#ffaa0f" stroke="none" /><path d="M 88.70189139769569 82.29822771554957 l -29.043180078114553 -45.50458649815192 a74.98308717938963,74.98308717938963 0 0,0 1.0939705622746405,-0.6850442657353306 l 28.25559036346767 45.99777510521019" fill="#42ffd5" stroke="none" /><path d="M 89.00827224532344 82.1063720568725 l -8.069638955628736 -13.136707925280808 a36.417268499586314,36.417268499586314 0 0,0 0.5369603701051904,-0.3235126148977928 l 7.842316519305896 13.27366714963722" fill="#ffc312" stroke="none" /><line stroke="#e1ed5e" stroke-width="0.3" x1="56.762969772571076" x2="54.21961505331055" y1="26.818313649435495" y2="22.513508569990535" /><path d="M 56.25429882871897 25.957352633546506 a86.0,86.0 0 0,1 42.265352541879196,-11.944610805530505" fill="none" id="id48" stroke="none" /><text fill="#e1ed5e" style="font-size:6.75px; font-family:Arial;" text-anchor="middle"><textPath startOffset="22.20632615414155" xlink:href="#id48">December</textPath></text><path d="M 89.63071344664047 81.73862282372117 l -1.0399955288018206 -1.8315387963640077 a23.10621106789284,23.10621106789284 0 0,0 0.34755692710305874,-0.19341505364095266 l 1.0083145126267161 1.8491692475651451" fill="#ff0c01" stroke="none" /><path d="M 90.26544431104013 81.39251694778311 l -10.569377320525572 -20.203234297299403 a43.80093009101197,43.80093009101197 0 0,0 0.6710709471733732,-0.34374860367919924 l 10.220045885763435 20.382175426291106" fill="#e0ff1b" stroke="none" /><path d="M 90.58718382345135 81.22770947309562 l -6.420956614434691 -12.805526079126398 a35.32515905697521,35.32515905697521 0 0,0 0.5459061481626353,-0.26787377605903284 l 6.199579199261629 12.91415501532026" fill="#ffb410" stroke="none" /><path d="M 90.91171255644093 81.06846463323043 l -2.4350674279831446 -5.072414953820875 a26.62662837253093,26.62662837253093 0 0,0 0.4148958553866746,-0.1947991672500884 l 2.3473933612968616 5.11357910371097" fill="#ff3f05" stroke="none" /><path d="M 91.23893434514133 80.91482961587045 l -8.54936899371551 -18.624008807806014 a41.492569733050566,41.492569733050566 0 0,0 0.6516662594630654,-0.2923836550055571 l 8.22752061578567 18.7684127933281" fill="#fcff18" stroke="none" /><path d="M 91.90106846888425 80.62456947434976 l -5.705706544811977 -13.650013009002711 a35.79452406539168,35.79452406539168 0 0,0 0.570524027861595,-0.23273107596996226 l 5.469898647362002 13.746204971156251" fill="#ffbb11" stroke="none" /><path d="M 92.23578459929587 80.48803036053334 l -10.3084762262033 -25.905859739105303 a48.881503742237356,48.881503742237356 0 0,0 0.78447093720311,-0.3043625361475641 l 9.861022124000515 26.07946497914342" fill="#a6ff21" stroke="none" /><path d="M 92.57280143429618 80.3572730644239 l -2.17490886359628 -5.751985831462357 a27.14943652461698,27.14943652461698 0 0,0 0.43855089116503937,-0.16152199429930103 l 2.0755756466586712 5.78857109356798" fill="#ff4606" stroke="none" /><path d="M 92.91201910852362 80.23233633223022 l -2.5044904683195597 -6.984771262068697 a28.420209032724365,28.420209032724365 0 0,0 0.4619204186262856,-0.16115496401353685 l 2.383888045629989 7.026847079254443" fill="#ff5808" stroke="none" /><path d="M 93.25333710446033 80.11325718540243 l -1.4173054435746024 -4.177708191813054 a25.411575733944517,25.411575733944517 0 0,0 0.4154395458738623,-0.13696388657283834 l 1.3451830754583307 4.201485802645127" fill="#ff2d04" stroke="none" /><path d="M 93.59665428221793 80.00007090966166 l -3.8781069764795686 -12.11270919184461 a33.71838974427252,33.71838974427252 0 0,0 0.554289588017306,-0.17222047314043404 l 3.669032015751534 12.177669799867571" fill="#ff9f0e" stroke="none" /><path d="M 93.94186890950719 79.89281104454417 l -2.2726849685373383 -7.5431358971941815 a28.87807058420747,28.87807058420747 0 0,0 0.4771891898092146,-0.13930460989447543 l 2.1425055610047026 7.581138836007356" fill="#ff5e08" stroke="none" /><path d="M 94.28887869178378 79.79150937346287 l -2.6819692016902588 -9.490001445958926 a30.86169793915417,30.86169793915417 0 0,0 0.5124542482629977,-0.1400731041216551 l 2.5182170642035384 9.534761090906876" fill="#ff790b" stroke="none" /><path d="M 94.63758080256005 79.69619591428918 l -3.020428472298079 -11.4362912891481 a32.828429591729986,32.828429591729986 0 0,0 0.5475955754482547,-0.13959430490585323 l 2.8231240081648252 11.486588590222816" fill="#ff940d" stroke="none" /><path d="M 94.98787191387505 79.60689891045804 l -1.2268371685129111 -4.991694938353878 a26.140247834067196,26.140247834067196 0 0,0 0.4378819049977983,-0.10363249951603988 l 1.1407315765525787 5.012073350010788" fill="#ff3805" stroke="none" /><path d="M 95.33964822691252 79.52364482259891 l -13.98105531926245 -61.42906553220327 a84.0,84.0 0 0,0 1.4126291033859162,-0.30874600761652715 l 12.921583491723013 61.66062503791566" fill="#4dd2ff" stroke="none" /><path d="M 95.692805502759 79.44645832069477 l -0.9374479731524968 -4.473416745102219 a25.570587060512977,25.570587060512977 0 0,0 0.43157499923289505,-0.08656988479932093 l 0.8603065644524653 4.488890585978751" fill="#ff3004" stroke="none" /><path d="M 96.04723909329186 79.375362276772 l -0.7216172881811128 -3.765240421776059 a24.833766678395833,24.833766678395833 0 0,0 0.42052421867761686,-0.07684811304017523 l 0.6566979484006027 3.7771040161669704" fill="#ff2503" stroke="none" /><path d="M 96.40284397218896 79.31037775812273 l -5.3469342863773495 -30.753753710429937 a52.2151096993847,52.2151096993847 0 0,0 0.8868383156202243,-0.14633592080124375 l 4.816766764618239 30.841235894170808" fill="#81ff25" stroke="none" /><path d="M 96.75951476605007 79.25152402106235 l -2.142841779596327 -13.720383825487756 a34.88670958906715,34.88670958906715 0 0,0 0.5941223580870343,-0.08755819165801215 l 1.9063504410806438 13.755236501306737" fill="#ffaf10" stroke="none" /><path d="M 97.11714578562143 79.19881850522333 l -2.593014287192262 -18.709846837698002 a39.88867628458122,39.88867628458122 0 0,0 0.6809287117781083,-0.08840408957368304 l 2.270570846906296 18.75170925043582" fill="#ffee16" stroke="none" /></svg>